<svg xmlns="http://www.w3.org/2000/svg" xmlns:xlink="http://www.w3.org/1999/xlink" zoomAndPan="magnify" preserveAspectRatio="xMidYMid meet" version="1.0" viewBox="-13.82 296.37 811.22 246.93"><defs><g/><clipPath id="0182607015"><path d="M 183 367 L 201 367 L 201 386 L 183 386 Z M 183 367 " clip-rule="nonzero"/></clipPath><clipPath id="2d9180fb08"><path d="M 194.234375 367.734375 C 193.3125 367.507812 192.378906 367.429688 191.433594 367.5 C 190.488281 367.574219 189.574219 367.789062 188.699219 368.152344 C 187.824219 368.519531 187.027344 369.007812 186.308594 369.628906 C 185.589844 370.246094 184.984375 370.960938 184.496094 371.773438 C 184.359375 372.082031 184.1875 372.355469 184.050781 372.628906 C 183.8125 373.109375 183.640625 373.613281 183.535156 374.136719 C 183.394531 374.699219 183.308594 375.269531 183.28125 375.847656 C 183.25 376.425781 183.277344 377.003906 183.363281 377.574219 C 183.449219 378.148438 183.585938 378.710938 183.78125 379.253906 C 183.976562 379.800781 184.222656 380.324219 184.519531 380.820312 C 184.820312 381.316406 185.160156 381.78125 185.550781 382.210938 C 185.941406 382.640625 186.367188 383.03125 186.832031 383.375 C 187.296875 383.722656 187.792969 384.019531 188.316406 384.269531 C 188.839844 384.515625 189.386719 384.710938 189.949219 384.855469 C 190.851562 385.070312 191.769531 385.148438 192.695312 385.078125 C 193.625 385.011719 194.519531 384.804688 195.382812 384.457031 C 196.246094 384.109375 197.039062 383.640625 197.753906 383.046875 C 198.472656 382.457031 199.082031 381.765625 199.582031 380.984375 L 200.234375 379.683594 L 200.269531 379.683594 C 200.441406 379.273438 200.578125 378.851562 200.679688 378.417969 C 200.816406 377.855469 200.894531 377.285156 200.921875 376.707031 C 200.945312 376.128906 200.914062 375.554688 200.828125 374.984375 C 200.738281 374.410156 200.597656 373.855469 200.398438 373.3125 C 200.203125 372.765625 199.953125 372.246094 199.65625 371.753906 C 199.355469 371.257812 199.011719 370.796875 198.621094 370.367188 C 198.234375 369.9375 197.804688 369.554688 197.339844 369.207031 C 196.875 368.863281 196.382812 368.566406 195.859375 368.320312 C 195.335938 368.070312 194.792969 367.875 194.234375 367.734375 Z M 194.234375 367.734375 " clip-rule="nonzero"/></clipPath><linearGradient x1="703.062469" gradientTransform="matrix(0.335755, 0.0694362, -0.0695314, 0.335295, -41.015529, 261.757888)" y1="189.63" x2="764.089629" gradientUnits="userSpaceOnUse" y2="189.63" id="6d9761c957"><stop stop-opacity="1" stop-color="rgb(15.299988%, 44.299316%, 87.799072%)" offset="0"/><stop stop-opacity="1" stop-color="rgb(15.299988%, 44.299316%, 87.799072%)" offset="0.0625"/><stop stop-opacity="1" stop-color="rgb(15.39917%, 44.146729%, 87.68158%)" offset="0.09375"/><stop stop-opacity="1" stop-color="rgb(15.600586%, 43.840027%, 87.445068%)" offset="0.109375"/><stop stop-opacity="1" stop-color="rgb(15.803528%, 43.531799%, 87.207031%)" offset="0.125"/><stop stop-opacity="1" stop-color="rgb(16.004944%, 43.223572%, 86.968994%)" offset="0.140625"/><stop stop-opacity="1" stop-color="rgb(16.207886%, 42.915344%, 86.732483%)" offset="0.15625"/><stop stop-opacity="1" stop-color="rgb(16.410828%, 42.607117%, 86.494446%)" offset="0.171875"/><stop stop-opacity="1" stop-color="rgb(16.612244%, 42.298889%, 86.256409%)" offset="0.1875"/><stop stop-opacity="1" stop-color="rgb(16.815186%, 41.990662%, 86.018372%)" offset="0.203125"/><stop stop-opacity="1" stop-color="rgb(17.018127%, 41.682434%, 85.780334%)" offset="0.21875"/><stop stop-opacity="1" stop-color="rgb(17.221069%, 41.374207%, 85.543823%)" offset="0.234375"/><stop stop-opacity="1" stop-color="rgb(17.422485%, 41.065979%, 85.305786%)" offset="0.25"/><stop stop-opacity="1" stop-color="rgb(17.581177%, 40.820312%, 85.119629%)" offset="0.257812"/><stop stop-opacity="1" stop-color="rgb(17.713928%, 40.59906%, 84.967041%)" offset="0.265625"/><stop stop-opacity="1" stop-color="rgb(17.866516%, 40.336609%, 84.794617%)" offset="0.273438"/><stop stop-opacity="1" stop-color="rgb(18.017578%, 40.074158%, 84.622192%)" offset="0.28125"/><stop stop-opacity="1" stop-color="rgb(18.16864%, 39.813232%, 84.451294%)" offset="0.289062"/><stop stop-opacity="1" stop-color="rgb(18.321228%, 39.550781%, 84.27887%)" offset="0.296875"/><stop stop-opacity="1" stop-color="rgb(18.47229%, 39.28833%, 84.106445%)" offset="0.304688"/><stop stop-opacity="1" stop-color="rgb(18.623352%, 39.027405%, 83.934021%)" offset="0.3125"/><stop stop-opacity="1" stop-color="rgb(18.77594%, 38.764954%, 83.763123%)" offset="0.320313"/><stop stop-opacity="1" stop-color="rgb(18.927002%, 38.502502%, 83.590698%)" offset="0.328125"/><stop stop-opacity="1" stop-color="rgb(19.078064%, 38.241577%, 83.418274%)" offset="0.335938"/><stop stop-opacity="1" stop-color="rgb(19.229126%, 37.979126%, 83.24585%)" offset="0.34375"/><stop stop-opacity="1" stop-color="rgb(19.381714%, 37.716675%, 83.074951%)" offset="0.351562"/><stop stop-opacity="1" stop-color="rgb(19.532776%, 37.45575%, 82.902527%)" offset="0.359375"/><stop stop-opacity="1" stop-color="rgb(19.683838%, 37.193298%, 82.730103%)" offset="0.367188"/><stop stop-opacity="1" stop-color="rgb(19.836426%, 36.930847%, 82.557678%)" offset="0.375"/><stop stop-opacity="1" stop-color="rgb(19.987488%, 36.669922%, 82.38678%)" offset="0.382813"/><stop stop-opacity="1" stop-color="rgb(20.13855%, 36.407471%, 82.214355%)" offset="0.390625"/><stop stop-opacity="1" stop-color="rgb(20.291138%, 36.14502%, 82.041931%)" offset="0.398438"/><stop stop-opacity="1" stop-color="rgb(20.4422%, 35.884094%, 81.869507%)" offset="0.40625"/><stop stop-opacity="1" stop-color="rgb(20.593262%, 35.621643%, 81.697083%)" offset="0.414062"/><stop stop-opacity="1" stop-color="rgb(20.744324%, 35.359192%, 81.526184%)" offset="0.421875"/><stop stop-opacity="1" stop-color="rgb(20.896912%, 35.098267%, 81.35376%)" offset="0.429688"/><stop stop-opacity="1" stop-color="rgb(21.047974%, 34.835815%, 81.181335%)" offset="0.4375"/><stop stop-opacity="1" stop-color="rgb(21.199036%, 34.573364%, 81.008911%)" offset="0.445313"/><stop stop-opacity="1" stop-color="rgb(21.351624%, 34.312439%, 80.838013%)" offset="0.453125"/><stop stop-opacity="1" stop-color="rgb(21.502686%, 34.049988%, 80.665588%)" offset="0.460938"/><stop stop-opacity="1" stop-color="rgb(21.653748%, 33.787537%, 80.493164%)" offset="0.46875"/><stop stop-opacity="1" stop-color="rgb(21.806335%, 33.526611%, 80.32074%)" offset="0.476563"/><stop stop-opacity="1" stop-color="rgb(21.957397%, 33.26416%, 80.149841%)" offset="0.484375"/><stop stop-opacity="1" stop-color="rgb(22.108459%, 33.001709%, 79.977417%)" offset="0.492188"/><stop stop-opacity="1" stop-color="rgb(22.259521%, 32.740784%, 79.804993%)" offset="0.5"/><stop stop-opacity="1" stop-color="rgb(22.412109%, 32.478333%, 79.632568%)" offset="0.507812"/><stop stop-opacity="1" stop-color="rgb(22.563171%, 32.215881%, 79.46167%)" offset="0.515625"/><stop stop-opacity="1" stop-color="rgb(22.714233%, 31.954956%, 79.289246%)" offset="0.523438"/><stop stop-opacity="1" stop-color="rgb(22.866821%, 31.692505%, 79.116821%)" offset="0.53125"/><stop stop-opacity="1" stop-color="rgb(23.017883%, 31.430054%, 78.944397%)" offset="0.539063"/><stop stop-opacity="1" stop-color="rgb(23.168945%, 31.169128%, 78.773499%)" offset="0.546875"/><stop stop-opacity="1" stop-color="rgb(23.321533%, 30.906677%, 78.601074%)" offset="0.554688"/><stop stop-opacity="1" stop-color="rgb(23.480225%, 30.633545%, 78.419495%)" offset="0.5625"/><stop stop-opacity="1" stop-color="rgb(23.658752%, 30.326843%, 78.205872%)" offset="0.570312"/><stop stop-opacity="1" stop-color="rgb(23.852539%, 29.998779%, 77.970886%)" offset="0.578125"/><stop stop-opacity="1" stop-color="rgb(24.0448%, 29.669189%, 77.737427%)" offset="0.585938"/><stop stop-opacity="1" stop-color="rgb(24.238586%, 29.341125%, 77.502441%)" offset="0.59375"/><stop stop-opacity="1" stop-color="rgb(24.432373%, 29.011536%, 77.267456%)" offset="0.601563"/><stop stop-opacity="1" stop-color="rgb(24.62616%, 28.681946%, 77.033997%)" offset="0.609375"/><stop stop-opacity="1" stop-color="rgb(24.819946%, 28.353882%, 76.799011%)" offset="0.617188"/><stop stop-opacity="1" stop-color="rgb(25.012207%, 28.024292%, 76.565552%)" offset="0.625"/><stop stop-opacity="1" stop-color="rgb(25.205994%, 27.696228%, 76.330566%)" offset="0.632813"/><stop stop-opacity="1" stop-color="rgb(25.39978%, 27.366638%, 76.095581%)" offset="0.640625"/><stop stop-opacity="1" stop-color="rgb(25.593567%, 27.037048%, 75.862122%)" offset="0.648438"/><stop stop-opacity="1" stop-color="rgb(25.787354%, 26.708984%, 75.627136%)" offset="0.65625"/><stop stop-opacity="1" stop-color="rgb(25.98114%, 26.379395%, 75.393677%)" offset="0.664062"/><stop stop-opacity="1" stop-color="rgb(26.173401%, 26.051331%, 75.158691%)" offset="0.671875"/><stop stop-opacity="1" stop-color="rgb(26.367188%, 25.721741%, 74.923706%)" offset="0.679688"/><stop stop-opacity="1" stop-color="rgb(26.560974%, 25.392151%, 74.690247%)" offset="0.6875"/><stop stop-opacity="1" stop-color="rgb(26.754761%, 25.064087%, 74.455261%)" offset="0.695313"/><stop stop-opacity="1" stop-color="rgb(26.948547%, 24.734497%, 74.221802%)" offset="0.703125"/><stop stop-opacity="1" stop-color="rgb(27.140808%, 24.406433%, 73.986816%)" offset="0.710938"/><stop stop-opacity="1" stop-color="rgb(27.334595%, 24.076843%, 73.753357%)" offset="0.71875"/><stop stop-opacity="1" stop-color="rgb(27.528381%, 23.748779%, 73.518372%)" offset="0.726563"/><stop stop-opacity="1" stop-color="rgb(27.722168%, 23.419189%, 73.283386%)" offset="0.734375"/><stop stop-opacity="1" stop-color="rgb(27.915955%, 23.0896%, 73.049927%)" offset="0.742188"/><stop stop-opacity="1" stop-color="rgb(28.109741%, 22.761536%, 72.814941%)" offset="0.75"/><stop stop-opacity="1" stop-color="rgb(28.302002%, 22.431946%, 72.581482%)" offset="0.757813"/><stop stop-opacity="1" stop-color="rgb(28.495789%, 22.103882%, 72.346497%)" offset="0.765625"/><stop stop-opacity="1" stop-color="rgb(28.689575%, 21.774292%, 72.111511%)" offset="0.773438"/><stop stop-opacity="1" stop-color="rgb(28.883362%, 21.444702%, 71.878052%)" offset="0.78125"/><stop stop-opacity="1" stop-color="rgb(29.077148%, 21.116638%, 71.643066%)" offset="0.789063"/><stop stop-opacity="1" stop-color="rgb(29.269409%, 20.787048%, 71.409607%)" offset="0.796875"/><stop stop-opacity="1" stop-color="rgb(29.463196%, 20.458984%, 71.174622%)" offset="0.804688"/><stop stop-opacity="1" stop-color="rgb(29.656982%, 20.129395%, 70.939636%)" offset="0.8125"/><stop stop-opacity="1" stop-color="rgb(29.850769%, 19.801331%, 70.706177%)" offset="0.820313"/><stop stop-opacity="1" stop-color="rgb(30.044556%, 19.471741%, 70.471191%)" offset="0.828125"/><stop stop-opacity="1" stop-color="rgb(30.236816%, 19.142151%, 70.237732%)" offset="0.835938"/><stop stop-opacity="1" stop-color="rgb(30.430603%, 18.814087%, 70.002747%)" offset="0.84375"/><stop stop-opacity="1" stop-color="rgb(30.62439%, 18.484497%, 69.769287%)" offset="0.851562"/><stop stop-opacity="1" stop-color="rgb(30.818176%, 18.156433%, 69.534302%)" offset="0.859375"/><stop stop-opacity="1" stop-color="rgb(31.011963%, 17.826843%, 69.299316%)" offset="0.867188"/><stop stop-opacity="1" stop-color="rgb(31.20575%, 17.497253%, 69.065857%)" offset="0.875"/><stop stop-opacity="1" stop-color="rgb(31.39801%, 17.169189%, 68.830872%)" offset="0.882813"/><stop stop-opacity="1" stop-color="rgb(31.591797%, 16.8396%, 68.597412%)" offset="0.890625"/><stop stop-opacity="1" stop-color="rgb(31.785583%, 16.511536%, 68.362427%)" offset="0.898438"/><stop stop-opacity="1" stop-color="rgb(31.97937%, 16.181946%, 68.127441%)" offset="0.90625"/><stop stop-opacity="1" stop-color="rgb(32.173157%, 15.853882%, 67.893982%)" offset="0.914063"/><stop stop-opacity="1" stop-color="rgb(32.365417%, 15.524292%, 67.658997%)" offset="0.921875"/><stop stop-opacity="1" stop-color="rgb(32.481384%, 15.328979%, 67.520142%)" offset="0.9375"/><stop stop-opacity="1" stop-color="rgb(32.499695%, 15.299988%, 67.498779%)" offset="1"/></linearGradient><clipPath id="4b18539033"><path d="M 182 457 L 201 457 L 201 476 L 182 476 Z M 182 457 " clip-rule="nonzero"/></clipPath><clipPath id="0cb91bca20"><path d="M 193.617188 457.753906 C 192.695312 457.527344 191.761719 457.449219 190.816406 457.519531 C 189.871094 457.59375 188.957031 457.808594 188.082031 458.171875 C 187.207031 458.535156 186.410156 459.027344 185.691406 459.648438 C 184.972656 460.265625 184.367188 460.980469 183.878906 461.792969 L 183.398438 462.648438 C 183.191406 463.140625 183.019531 463.640625 182.882812 464.15625 C 182.753906 464.664062 182.671875 465.175781 182.632812 465.699219 C 182.597656 466.21875 182.605469 466.738281 182.660156 467.261719 C 182.714844 467.78125 182.816406 468.289062 182.960938 468.792969 C 183.109375 469.292969 183.296875 469.78125 183.53125 470.25 C 183.761719 470.71875 184.035156 471.160156 184.34375 471.582031 C 184.65625 472.003906 185 472.390625 185.382812 472.75 C 185.761719 473.109375 186.171875 473.433594 186.609375 473.71875 C 187.046875 474.003906 187.507812 474.25 187.988281 474.457031 C 188.46875 474.660156 188.964844 474.824219 189.476562 474.941406 C 189.984375 475.058594 190.503906 475.128906 191.023438 475.152344 C 191.546875 475.179688 192.070312 475.160156 192.589844 475.09375 C 193.105469 475.027344 193.617188 474.914062 194.117188 474.757812 C 194.613281 474.601562 195.097656 474.398438 195.558594 474.15625 C 196.023438 473.914062 196.460938 473.632812 196.875 473.3125 C 197.289062 472.992188 197.671875 472.640625 198.023438 472.25 C 198.375 471.863281 198.6875 471.449219 198.964844 471.003906 C 199.207031 470.59375 199.410156 470.148438 199.617188 469.738281 L 199.652344 469.738281 C 199.824219 469.328125 199.925781 468.914062 200.0625 468.46875 C 200.199219 467.90625 200.285156 467.335938 200.308594 466.757812 C 200.335938 466.175781 200.308594 465.601562 200.21875 465.027344 C 200.132812 464.453125 199.992188 463.894531 199.796875 463.347656 C 199.597656 462.804688 199.351562 462.28125 199.050781 461.785156 C 198.753906 461.289062 198.410156 460.824219 198.019531 460.394531 C 197.628906 459.964844 197.199219 459.578125 196.734375 459.230469 C 196.269531 458.886719 195.773438 458.589844 195.246094 458.339844 C 194.722656 458.089844 194.179688 457.894531 193.617188 457.753906 Z M 193.617188 457.753906 " clip-rule="nonzero"/></clipPath><linearGradient x1="754.508059" gradientTransform="matrix(0.335755, 0.0694362, -0.0695314, 0.335295, -41.015529, 261.757888)" y1="447.44" x2="815.672062" gradientUnits="userSpaceOnUse" y2="447.44" id="701922345a"><stop stop-opacity="1" stop-color="rgb(15.299988%, 44.299316%, 87.799072%)" offset="0"/><stop stop-opacity="1" stop-color="rgb(15.299988%, 44.299316%, 87.799072%)" offset="0.0625"/><stop stop-opacity="1" stop-color="rgb(15.386963%, 44.165039%, 87.695312%)" offset="0.09375"/><stop stop-opacity="1" stop-color="rgb(15.576172%, 43.875122%, 87.472534%)" offset="0.109375"/><stop stop-opacity="1" stop-color="rgb(15.779114%, 43.566895%, 87.234497%)" offset="0.125"/><stop stop-opacity="1" stop-color="rgb(15.982056%, 43.257141%, 86.99646%)" offset="0.140625"/><stop stop-opacity="1" stop-color="rgb(16.184998%, 42.948914%, 86.758423%)" offset="0.15625"/><stop stop-opacity="1" stop-color="rgb(16.387939%, 42.640686%, 86.51886%)" offset="0.171875"/><stop stop-opacity="1" stop-color="rgb(16.590881%, 42.330933%, 86.280823%)" offset="0.1875"/><stop stop-opacity="1" stop-color="rgb(16.793823%, 42.022705%, 86.042786%)" offset="0.203125"/><stop stop-opacity="1" stop-color="rgb(16.996765%, 41.712952%, 85.804749%)" offset="0.21875"/><stop stop-opacity="1" stop-color="rgb(17.199707%, 41.404724%, 85.566711%)" offset="0.234375"/><stop stop-opacity="1" stop-color="rgb(17.404175%, 41.096497%, 85.328674%)" offset="0.25"/><stop stop-opacity="1" stop-color="rgb(17.558289%, 40.859985%, 85.147095%)" offset="0.257812"/><stop stop-opacity="1" stop-color="rgb(17.686462%, 40.647888%, 84.999084%)" offset="0.265625"/><stop stop-opacity="1" stop-color="rgb(17.83905%, 40.385437%, 84.82666%)" offset="0.273437"/><stop stop-opacity="1" stop-color="rgb(17.990112%, 40.122986%, 84.654236%)" offset="0.28125"/><stop stop-opacity="1" stop-color="rgb(18.1427%, 39.860535%, 84.481812%)" offset="0.289062"/><stop stop-opacity="1" stop-color="rgb(18.293762%, 39.598083%, 84.309387%)" offset="0.296875"/><stop stop-opacity="1" stop-color="rgb(18.44635%, 39.334106%, 84.136963%)" offset="0.304688"/><stop stop-opacity="1" stop-color="rgb(18.597412%, 39.071655%, 83.964539%)" offset="0.3125"/><stop stop-opacity="1" stop-color="rgb(18.75%, 38.809204%, 83.792114%)" offset="0.320312"/><stop stop-opacity="1" stop-color="rgb(18.901062%, 38.546753%, 83.61969%)" offset="0.328125"/><stop stop-opacity="1" stop-color="rgb(19.05365%, 38.284302%, 83.447266%)" offset="0.335938"/><stop stop-opacity="1" stop-color="rgb(19.204712%, 38.021851%, 83.274841%)" offset="0.34375"/><stop stop-opacity="1" stop-color="rgb(19.3573%, 37.759399%, 83.102417%)" offset="0.351562"/><stop stop-opacity="1" stop-color="rgb(19.508362%, 37.496948%, 82.929993%)" offset="0.359375"/><stop stop-opacity="1" stop-color="rgb(19.66095%, 37.234497%, 82.757568%)" offset="0.367187"/><stop stop-opacity="1" stop-color="rgb(19.812012%, 36.972046%, 82.585144%)" offset="0.375"/><stop stop-opacity="1" stop-color="rgb(19.9646%, 36.709595%, 82.41272%)" offset="0.382812"/><stop stop-opacity="1" stop-color="rgb(20.115662%, 36.447144%, 82.240295%)" offset="0.390625"/><stop stop-opacity="1" stop-color="rgb(20.26825%, 36.184692%, 82.067871%)" offset="0.398437"/><stop stop-opacity="1" stop-color="rgb(20.420837%, 35.922241%, 81.895447%)" offset="0.40625"/><stop stop-opacity="1" stop-color="rgb(20.571899%, 35.65979%, 81.723022%)" offset="0.414062"/><stop stop-opacity="1" stop-color="rgb(20.724487%, 35.397339%, 81.550598%)" offset="0.421875"/><stop stop-opacity="1" stop-color="rgb(20.875549%, 35.134888%, 81.376648%)" offset="0.429687"/><stop stop-opacity="1" stop-color="rgb(21.028137%, 34.872437%, 81.204224%)" offset="0.4375"/><stop stop-opacity="1" stop-color="rgb(21.179199%, 34.608459%, 81.031799%)" offset="0.445312"/><stop stop-opacity="1" stop-color="rgb(21.331787%, 34.346008%, 80.859375%)" offset="0.453125"/><stop stop-opacity="1" stop-color="rgb(21.482849%, 34.083557%, 80.686951%)" offset="0.460937"/><stop stop-opacity="1" stop-color="rgb(21.635437%, 33.821106%, 80.514526%)" offset="0.46875"/><stop stop-opacity="1" stop-color="rgb(21.786499%, 33.558655%, 80.342102%)" offset="0.476562"/><stop stop-opacity="1" stop-color="rgb(21.939087%, 33.296204%, 80.169678%)" offset="0.484375"/><stop stop-opacity="1" stop-color="rgb(22.090149%, 33.033752%, 79.997253%)" offset="0.492187"/><stop stop-opacity="1" stop-color="rgb(22.242737%, 32.771301%, 79.824829%)" offset="0.5"/><stop stop-opacity="1" stop-color="rgb(22.393799%, 32.50885%, 79.652405%)" offset="0.507812"/><stop stop-opacity="1" stop-color="rgb(22.546387%, 32.246399%, 79.47998%)" offset="0.515625"/><stop stop-opacity="1" stop-color="rgb(22.697449%, 31.983948%, 79.307556%)" offset="0.523438"/><stop stop-opacity="1" stop-color="rgb(22.850037%, 31.721497%, 79.135132%)" offset="0.53125"/><stop stop-opacity="1" stop-color="rgb(23.001099%, 31.459045%, 78.962708%)" offset="0.539062"/><stop stop-opacity="1" stop-color="rgb(23.153687%, 31.196594%, 78.790283%)" offset="0.546875"/><stop stop-opacity="1" stop-color="rgb(23.304749%, 30.934143%, 78.617859%)" offset="0.554688"/><stop stop-opacity="1" stop-color="rgb(23.461914%, 30.664062%, 78.439331%)" offset="0.5625"/><stop stop-opacity="1" stop-color="rgb(23.638916%, 30.360413%, 78.22876%)" offset="0.570312"/><stop stop-opacity="1" stop-color="rgb(23.832703%, 30.030823%, 77.993774%)" offset="0.578125"/><stop stop-opacity="1" stop-color="rgb(24.026489%, 29.701233%, 77.758789%)" offset="0.585938"/><stop stop-opacity="1" stop-color="rgb(24.221802%, 29.370117%, 77.523804%)" offset="0.59375"/><stop stop-opacity="1" stop-color="rgb(24.415588%, 29.040527%, 77.288818%)" offset="0.601562"/><stop stop-opacity="1" stop-color="rgb(24.609375%, 28.710938%, 77.053833%)" offset="0.609375"/><stop stop-opacity="1" stop-color="rgb(24.803162%, 28.381348%, 76.818848%)" offset="0.617188"/><stop stop-opacity="1" stop-color="rgb(24.996948%, 28.051758%, 76.583862%)" offset="0.625"/><stop stop-opacity="1" stop-color="rgb(25.190735%, 27.722168%, 76.350403%)" offset="0.632812"/><stop stop-opacity="1" stop-color="rgb(25.384521%, 27.392578%, 76.115417%)" offset="0.640625"/><stop stop-opacity="1" stop-color="rgb(25.578308%, 27.062988%, 75.880432%)" offset="0.648438"/><stop stop-opacity="1" stop-color="rgb(25.772095%, 26.733398%, 75.645447%)" offset="0.65625"/><stop stop-opacity="1" stop-color="rgb(25.965881%, 26.403809%, 75.410461%)" offset="0.664062"/><stop stop-opacity="1" stop-color="rgb(26.161194%, 26.074219%, 75.175476%)" offset="0.671875"/><stop stop-opacity="1" stop-color="rgb(26.35498%, 25.744629%, 74.940491%)" offset="0.679688"/><stop stop-opacity="1" stop-color="rgb(26.548767%, 25.415039%, 74.705505%)" offset="0.6875"/><stop stop-opacity="1" stop-color="rgb(26.742554%, 25.085449%, 74.47052%)" offset="0.695312"/><stop stop-opacity="1" stop-color="rgb(26.93634%, 24.754333%, 74.235535%)" offset="0.703125"/><stop stop-opacity="1" stop-color="rgb(27.130127%, 24.424744%, 74.000549%)" offset="0.710938"/><stop stop-opacity="1" stop-color="rgb(27.323914%, 24.095154%, 73.765564%)" offset="0.71875"/><stop stop-opacity="1" stop-color="rgb(27.5177%, 23.765564%, 73.530579%)" offset="0.726562"/><stop stop-opacity="1" stop-color="rgb(27.711487%, 23.435974%, 73.295593%)" offset="0.734375"/><stop stop-opacity="1" stop-color="rgb(27.905273%, 23.106384%, 73.060608%)" offset="0.742188"/><stop stop-opacity="1" stop-color="rgb(28.100586%, 22.776794%, 72.827148%)" offset="0.75"/><stop stop-opacity="1" stop-color="rgb(28.294373%, 22.447205%, 72.592163%)" offset="0.757812"/><stop stop-opacity="1" stop-color="rgb(28.488159%, 22.117615%, 72.357178%)" offset="0.765625"/><stop stop-opacity="1" stop-color="rgb(28.681946%, 21.788025%, 72.122192%)" offset="0.773438"/><stop stop-opacity="1" stop-color="rgb(28.875732%, 21.458435%, 71.887207%)" offset="0.78125"/><stop stop-opacity="1" stop-color="rgb(29.069519%, 21.128845%, 71.652222%)" offset="0.789062"/><stop stop-opacity="1" stop-color="rgb(29.263306%, 20.799255%, 71.417236%)" offset="0.796875"/><stop stop-opacity="1" stop-color="rgb(29.457092%, 20.469666%, 71.182251%)" offset="0.804688"/><stop stop-opacity="1" stop-color="rgb(29.650879%, 20.140076%, 70.947266%)" offset="0.8125"/><stop stop-opacity="1" stop-color="rgb(29.844666%, 19.80896%, 70.71228%)" offset="0.820312"/><stop stop-opacity="1" stop-color="rgb(30.039978%, 19.47937%, 70.477295%)" offset="0.828125"/><stop stop-opacity="1" stop-color="rgb(30.233765%, 19.14978%, 70.24231%)" offset="0.835938"/><stop stop-opacity="1" stop-color="rgb(30.427551%, 18.82019%, 70.007324%)" offset="0.84375"/><stop stop-opacity="1" stop-color="rgb(30.621338%, 18.490601%, 69.772339%)" offset="0.851562"/><stop stop-opacity="1" stop-color="rgb(30.815125%, 18.161011%, 69.537354%)" offset="0.859375"/><stop stop-opacity="1" stop-color="rgb(31.008911%, 17.831421%, 69.303894%)" offset="0.867188"/><stop stop-opacity="1" stop-color="rgb(31.202698%, 17.501831%, 69.068909%)" offset="0.875"/><stop stop-opacity="1" stop-color="rgb(31.396484%, 17.172241%, 68.833923%)" offset="0.882812"/><stop stop-opacity="1" stop-color="rgb(31.590271%, 16.842651%, 68.598938%)" offset="0.890625"/><stop stop-opacity="1" stop-color="rgb(31.784058%, 16.513062%, 68.363953%)" offset="0.898438"/><stop stop-opacity="1" stop-color="rgb(31.97937%, 16.183472%, 68.128967%)" offset="0.90625"/><stop stop-opacity="1" stop-color="rgb(32.173157%, 15.853882%, 67.893982%)" offset="0.914062"/><stop stop-opacity="1" stop-color="rgb(32.366943%, 15.524292%, 67.658997%)" offset="0.921875"/><stop stop-opacity="1" stop-color="rgb(32.481384%, 15.328979%, 67.520142%)" offset="0.9375"/><stop stop-opacity="1" stop-color="rgb(32.499695%, 15.299988%, 67.498779%)" offset="1"/></linearGradient><clipPath id="e060dc1156"><path d="M 23.324219 326.472656 L 175 326.472656 L 175 513.222656 L 23.324219 513.222656 Z M 23.324219 326.472656 " clip-rule="nonzero"/></clipPath><clipPath id="4f4542ffe9"><path d="M 167.832031 479.871094 C 166.597656 479.621094 165.367188 479.628906 164.136719 479.894531 C 162.90625 480.164062 161.785156 480.671875 160.769531 481.414062 C 157.328125 483.859375 153.710938 486 149.910156 487.835938 C 146.109375 489.671875 142.183594 491.179688 138.128906 492.359375 C 134.074219 493.535156 129.953125 494.367188 125.757812 494.851562 C 121.5625 495.335938 117.359375 495.46875 113.144531 495.246094 L 111.941406 495.179688 C 108.480469 494.945312 105.054688 494.476562 101.65625 493.773438 C 60.75 485.316406 34.488281 445.359375 42.957031 404.542969 C 51.425781 363.726562 91.4375 337.464844 132.308594 345.921875 C 137.265625 346.9375 142.070312 348.4375 146.722656 350.421875 C 151.375 352.40625 155.78125 354.832031 159.945312 357.699219 L 159.980469 357.699219 C 160.480469 358.167969 161.027344 358.566406 161.625 358.898438 C 162.429688 359.328125 163.273438 359.632812 164.164062 359.824219 C 164.65625 359.921875 165.152344 359.976562 165.652344 359.992188 C 166.152344 360.007812 166.652344 359.980469 167.148438 359.910156 C 167.644531 359.84375 168.132812 359.734375 168.609375 359.582031 C 169.089844 359.433594 169.550781 359.246094 170 359.019531 C 170.445312 358.789062 170.871094 358.527344 171.273438 358.230469 C 171.675781 357.929688 172.050781 357.601562 172.398438 357.238281 C 172.742188 356.878906 173.058594 356.492188 173.339844 356.078125 C 173.625 355.664062 173.867188 355.230469 174.078125 354.773438 C 174.289062 354.320312 174.457031 353.851562 174.589844 353.367188 C 174.71875 352.882812 174.808594 352.394531 174.859375 351.894531 C 174.90625 351.398438 174.914062 350.898438 174.878906 350.398438 C 174.84375 349.898438 174.765625 349.40625 174.648438 348.917969 C 174.53125 348.433594 174.375 347.960938 174.179688 347.5 C 173.980469 347.039062 173.746094 346.597656 173.476562 346.175781 C 173.203125 345.757812 172.902344 345.359375 172.5625 344.988281 C 172.226562 344.621094 171.859375 344.28125 171.464844 343.96875 L 171.433594 343.96875 L 170.847656 343.558594 L 170.710938 343.457031 C 165.492188 339.789062 159.957031 336.691406 154.101562 334.160156 C 148.246094 331.628906 142.191406 329.714844 135.945312 328.425781 C 85.402344 317.980469 35.925781 350.40625 25.433594 400.914062 C 14.941406 451.417969 47.445312 500.792969 98.023438 511.269531 C 101.148438 511.921875 104.300781 512.410156 107.480469 512.734375 C 110.65625 513.0625 113.84375 513.222656 117.035156 513.222656 C 120.230469 513.222656 123.417969 513.058594 126.59375 512.730469 C 129.769531 512.402344 132.921875 511.914062 136.050781 511.265625 C 139.179688 510.613281 142.261719 509.804688 145.308594 508.835938 C 148.351562 507.871094 151.335938 506.75 154.265625 505.476562 C 157.195312 504.203125 160.050781 502.78125 162.832031 501.214844 C 165.617188 499.648438 168.308594 497.945312 170.917969 496.101562 L 171.089844 496 L 171.464844 495.691406 L 171.636719 495.589844 C 172.4375 494.9375 173.109375 494.167969 173.652344 493.289062 C 174.191406 492.40625 174.570312 491.460938 174.792969 490.453125 C 174.910156 489.878906 174.972656 489.296875 174.976562 488.707031 C 174.976562 488.121094 174.925781 487.539062 174.8125 486.960938 C 174.703125 486.386719 174.535156 485.824219 174.316406 485.28125 C 174.09375 484.734375 173.824219 484.21875 173.5 483.726562 C 173.175781 483.238281 172.808594 482.78125 172.394531 482.363281 C 171.984375 481.945312 171.535156 481.570312 171.046875 481.238281 C 170.5625 480.90625 170.046875 480.628906 169.507812 480.398438 C 168.964844 480.167969 168.40625 479.992188 167.832031 479.871094 Z M 167.832031 479.871094 " clip-rule="nonzero"/></clipPath><linearGradient x1="313.064149" gradientTransform="matrix(0.335755, 0.0694362, -0.0695314, 0.335295, -41.015529, 261.757888)" y1="4.795961" x2="719.08867" gradientUnits="userSpaceOnUse" y2="708.046658" id="ee7046b96b"><stop stop-opacity="1" stop-color="rgb(0%, 56.898499%, 83.099365%)" offset="0"/><stop stop-opacity="1" stop-color="rgb(0%, 56.898499%, 83.099365%)" offset="0.125"/><stop stop-opacity="1" stop-color="rgb(0%, 56.925964%, 83.093262%)" offset="0.1875"/><stop stop-opacity="1" stop-color="rgb(0%, 57.090759%, 83.061218%)" offset="0.203125"/><stop stop-opacity="1" stop-color="rgb(0%, 57.362366%, 83.006287%)" offset="0.21875"/><stop stop-opacity="1" stop-color="rgb(0%, 57.633972%, 82.951355%)" offset="0.234375"/><stop stop-opacity="1" stop-color="rgb(0%, 57.905579%, 82.897949%)" offset="0.25"/><stop stop-opacity="1" stop-color="rgb(0%, 58.177185%, 82.843018%)" offset="0.265625"/><stop stop-opacity="1" stop-color="rgb(0%, 58.448792%, 82.789612%)" offset="0.28125"/><stop stop-opacity="1" stop-color="rgb(0%, 58.718872%, 82.73468%)" offset="0.296875"/><stop stop-opacity="1" stop-color="rgb(0%, 58.990479%, 82.681274%)" offset="0.3125"/><stop stop-opacity="1" stop-color="rgb(0%, 59.262085%, 82.626343%)" offset="0.328125"/><stop stop-opacity="1" stop-color="rgb(0%, 59.533691%, 82.571411%)" offset="0.334777"/><stop stop-opacity="1" stop-color="rgb(0%, 59.669495%, 82.545471%)" offset="0.34375"/><stop stop-opacity="1" stop-color="rgb(0%, 59.805298%, 82.518005%)" offset="0.359375"/><stop stop-opacity="1" stop-color="rgb(0%, 60.076904%, 82.463074%)" offset="0.375"/><stop stop-opacity="1" stop-color="rgb(0%, 60.377502%, 82.400513%)" offset="0.390625"/><stop stop-opacity="1" stop-color="rgb(0%, 60.65979%, 82.337952%)" offset="0.398438"/><stop stop-opacity="1" stop-color="rgb(0%, 60.89325%, 82.28302%)" offset="0.40625"/><stop stop-opacity="1" stop-color="rgb(0%, 61.125183%, 82.228088%)" offset="0.414063"/><stop stop-opacity="1" stop-color="rgb(0%, 61.358643%, 82.173157%)" offset="0.421875"/><stop stop-opacity="1" stop-color="rgb(0%, 61.590576%, 82.118225%)" offset="0.429688"/><stop stop-opacity="1" stop-color="rgb(0%, 61.824036%, 82.063293%)" offset="0.4375"/><stop stop-opacity="1" stop-color="rgb(0%, 62.055969%, 82.009888%)" offset="0.445312"/><stop stop-opacity="1" stop-color="rgb(0%, 62.289429%, 81.954956%)" offset="0.453125"/><stop stop-opacity="1" stop-color="rgb(0%, 62.521362%, 81.900024%)" offset="0.460937"/><stop stop-opacity="1" stop-color="rgb(0%, 62.754822%, 81.845093%)" offset="0.46875"/><stop stop-opacity="1" stop-color="rgb(0%, 62.986755%, 81.790161%)" offset="0.476562"/><stop stop-opacity="1" stop-color="rgb(0%, 63.220215%, 81.735229%)" offset="0.484375"/><stop stop-opacity="1" stop-color="rgb(0%, 63.452148%, 81.680298%)" offset="0.492188"/><stop stop-opacity="1" stop-color="rgb(0%, 63.685608%, 81.625366%)" offset="0.5"/><stop stop-opacity="1" stop-color="rgb(0%, 63.917542%, 81.57196%)" offset="0.507812"/><stop stop-opacity="1" stop-color="rgb(0%, 64.149475%, 81.517029%)" offset="0.515625"/><stop stop-opacity="1" stop-color="rgb(0%, 64.382935%, 81.462097%)" offset="0.523438"/><stop stop-opacity="1" stop-color="rgb(0%, 64.614868%, 81.407166%)" offset="0.53125"/><stop stop-opacity="1" stop-color="rgb(0%, 64.848328%, 81.352234%)" offset="0.539062"/><stop stop-opacity="1" stop-color="rgb(0%, 65.080261%, 81.297302%)" offset="0.546875"/><stop stop-opacity="1" stop-color="rgb(0%, 65.313721%, 81.242371%)" offset="0.554688"/><stop stop-opacity="1" stop-color="rgb(0%, 65.545654%, 81.187439%)" offset="0.5625"/><stop stop-opacity="1" stop-color="rgb(0%, 65.779114%, 81.134033%)" offset="0.570312"/><stop stop-opacity="1" stop-color="rgb(0%, 66.011047%, 81.079102%)" offset="0.578125"/><stop stop-opacity="1" stop-color="rgb(0%, 66.244507%, 81.02417%)" offset="0.585938"/><stop stop-opacity="1" stop-color="rgb(0%, 66.47644%, 80.969238%)" offset="0.59375"/><stop stop-opacity="1" stop-color="rgb(0%, 66.7099%, 80.914307%)" offset="0.601563"/><stop stop-opacity="1" stop-color="rgb(0%, 66.941833%, 80.859375%)" offset="0.609375"/><stop stop-opacity="1" stop-color="rgb(0%, 67.175293%, 80.804443%)" offset="0.617188"/><stop stop-opacity="1" stop-color="rgb(0%, 67.407227%, 80.749512%)" offset="0.625"/><stop stop-opacity="1" stop-color="rgb(0%, 67.640686%, 80.696106%)" offset="0.632813"/><stop stop-opacity="1" stop-color="rgb(0%, 67.87262%, 80.641174%)" offset="0.640625"/><stop stop-opacity="1" stop-color="rgb(0%, 68.104553%, 80.586243%)" offset="0.648438"/><stop stop-opacity="1" stop-color="rgb(0%, 68.338013%, 80.531311%)" offset="0.65625"/><stop stop-opacity="1" stop-color="rgb(0%, 68.569946%, 80.476379%)" offset="0.664063"/><stop stop-opacity="1" stop-color="rgb(0%, 68.803406%, 80.421448%)" offset="0.665223"/><stop stop-opacity="1" stop-color="rgb(0%, 68.919373%, 80.393982%)" offset="0.671875"/><stop stop-opacity="1" stop-color="rgb(0%, 69.035339%, 80.366516%)" offset="0.679688"/><stop stop-opacity="1" stop-color="rgb(0%, 69.268799%, 80.311584%)" offset="0.6875"/><stop stop-opacity="1" stop-color="rgb(0%, 69.500732%, 80.258179%)" offset="0.695312"/><stop stop-opacity="1" stop-color="rgb(0%, 69.734192%, 80.203247%)" offset="0.703125"/><stop stop-opacity="1" stop-color="rgb(0%, 69.966125%, 80.148315%)" offset="0.710938"/><stop stop-opacity="1" stop-color="rgb(0%, 70.199585%, 80.093384%)" offset="0.71875"/><stop stop-opacity="1" stop-color="rgb(0%, 70.431519%, 80.038452%)" offset="0.726562"/><stop stop-opacity="1" stop-color="rgb(0%, 70.677185%, 79.975891%)" offset="0.734375"/><stop stop-opacity="1" stop-color="rgb(0%, 70.936584%, 79.905701%)" offset="0.742188"/><stop stop-opacity="1" stop-color="rgb(0%, 71.199036%, 79.830933%)" offset="0.75"/><stop stop-opacity="1" stop-color="rgb(0%, 71.463013%, 79.75769%)" offset="0.757812"/><stop stop-opacity="1" stop-color="rgb(0%, 71.725464%, 79.684448%)" offset="0.765625"/><stop stop-opacity="1" stop-color="rgb(0%, 71.989441%, 79.611206%)" offset="0.773438"/><stop stop-opacity="1" stop-color="rgb(0%, 72.251892%, 79.537964%)" offset="0.78125"/><stop stop-opacity="1" stop-color="rgb(0%, 72.515869%, 79.464722%)" offset="0.789063"/><stop stop-opacity="1" stop-color="rgb(0%, 72.77832%, 79.389954%)" offset="0.796875"/><stop stop-opacity="1" stop-color="rgb(0%, 73.042297%, 79.316711%)" offset="0.804688"/><stop stop-opacity="1" stop-color="rgb(0%, 73.306274%, 79.243469%)" offset="0.8125"/><stop stop-opacity="1" stop-color="rgb(0%, 73.568726%, 79.170227%)" offset="0.820313"/><stop stop-opacity="1" stop-color="rgb(0%, 73.832703%, 79.096985%)" offset="0.828125"/><stop stop-opacity="1" stop-color="rgb(0%, 74.095154%, 79.023743%)" offset="0.835938"/><stop stop-opacity="1" stop-color="rgb(0%, 74.359131%, 78.9505%)" offset="0.84375"/><stop stop-opacity="1" stop-color="rgb(0%, 74.621582%, 78.875732%)" offset="0.851563"/><stop stop-opacity="1" stop-color="rgb(0%, 74.82605%, 78.819275%)" offset="0.859375"/><stop stop-opacity="1" stop-color="rgb(0%, 74.899292%, 78.799438%)" offset="0.875"/><stop stop-opacity="1" stop-color="rgb(0%, 74.899292%, 78.799438%)" offset="1"/></linearGradient><clipPath id="60ba888acf"><path d="M 72 362 L 174 362 L 174 476 L 72 476 Z M 72 362 " clip-rule="nonzero"/></clipPath><clipPath id="f8253ab06e"><path d="M 101.382812 473.128906 C 106.0625 474.433594 110.828125 475.121094 115.6875 475.191406 C 120.546875 475.261719 125.332031 474.710938 130.046875 473.539062 L 132.035156 472.988281 L 132.070312 472.988281 C 133.109375 472.691406 134.140625 472.363281 135.164062 472.003906 C 136.1875 471.648438 137.199219 471.261719 138.199219 470.84375 C 139.199219 470.429688 140.1875 469.984375 141.160156 469.511719 C 142.136719 469.039062 143.09375 468.539062 144.039062 468.011719 C 144.988281 467.484375 145.917969 466.929688 146.832031 466.347656 C 147.742188 465.765625 148.640625 465.160156 149.519531 464.527344 C 150.398438 463.894531 151.257812 463.238281 152.097656 462.554688 C 152.941406 461.875 153.761719 461.167969 154.5625 460.441406 C 155.363281 459.710938 156.140625 458.960938 156.898438 458.1875 C 157.65625 457.414062 158.390625 456.617188 159.101562 455.804688 C 159.8125 454.988281 160.5 454.152344 161.164062 453.296875 C 161.828125 452.441406 162.46875 451.566406 163.082031 450.675781 C 163.695312 449.785156 164.28125 448.875 164.84375 447.949219 C 165.402344 447.023438 165.9375 446.085938 166.445312 445.128906 C 166.953125 444.171875 167.429688 443.203125 167.882812 442.21875 C 168.332031 441.234375 168.753906 440.238281 169.148438 439.230469 C 169.542969 438.222656 169.90625 437.207031 170.242188 436.175781 C 170.578125 435.148438 170.882812 434.109375 171.160156 433.0625 C 171.433594 432.019531 171.679688 430.964844 171.894531 429.902344 C 172.109375 428.84375 172.296875 427.777344 172.449219 426.707031 C 172.601562 425.636719 172.726562 424.5625 172.816406 423.484375 C 172.910156 422.40625 172.96875 421.328125 173 420.246094 C 173.03125 419.164062 173.027344 418.082031 172.996094 417 C 172.964844 415.917969 172.898438 414.839844 172.804688 413.761719 C 172.710938 412.683594 172.585938 411.609375 172.429688 410.539062 C 172.273438 409.46875 172.085938 408.402344 171.867188 407.34375 C 171.652344 406.285156 171.402344 405.230469 171.125 404.1875 C 170.847656 403.140625 170.539062 402.101562 170.203125 401.074219 C 169.863281 400.046875 169.496094 399.03125 169.101562 398.023438 C 168.703125 397.015625 168.28125 396.023438 167.824219 395.039062 C 167.371094 394.054688 166.890625 393.085938 166.382812 392.132812 C 165.871094 391.179688 165.335938 390.238281 164.773438 389.3125 C 164.210938 388.390625 163.621094 387.484375 163.003906 386.59375 C 162.390625 385.703125 161.75 384.832031 161.082031 383.976562 C 160.417969 383.125 159.726562 382.289062 159.015625 381.476562 C 158.300781 380.660156 157.566406 379.867188 156.804688 379.097656 C 156.046875 378.324219 155.265625 377.574219 154.464844 376.847656 C 153.660156 376.121094 152.839844 375.417969 151.996094 374.738281 C 151.152344 374.058594 150.292969 373.402344 149.410156 372.773438 C 148.53125 372.144531 147.632812 371.539062 146.71875 370.960938 C 145.800781 370.378906 144.871094 369.828125 143.921875 369.304688 C 142.976562 368.777344 142.015625 368.28125 141.039062 367.808594 C 140.0625 367.339844 139.074219 366.898438 138.074219 366.484375 C 137.074219 366.070312 136.0625 365.683594 135.039062 365.328125 C 134.015625 364.972656 132.984375 364.648438 131.941406 364.351562 C 130.898438 364.054688 129.847656 363.789062 128.792969 363.554688 C 127.734375 363.316406 126.671875 363.113281 125.601562 362.9375 C 124.535156 362.761719 123.460938 362.617188 122.382812 362.503906 C 121.304688 362.390625 120.226562 362.308594 119.144531 362.257812 C 118.0625 362.203125 116.980469 362.183594 115.894531 362.195312 C 114.8125 362.207031 113.730469 362.246094 112.648438 362.320312 C 111.570312 362.390625 110.492188 362.496094 109.414062 362.628906 C 108.339844 362.765625 107.269531 362.929688 106.203125 363.125 C 105.140625 363.320312 104.082031 363.546875 103.027344 363.804688 C 101.976562 364.0625 100.929688 364.347656 99.894531 364.664062 C 98.859375 364.980469 97.832031 365.324219 96.816406 365.703125 C 95.800781 366.078125 94.796875 366.480469 93.804688 366.914062 C 92.8125 367.347656 91.832031 367.808594 90.867188 368.296875 C 89.898438 368.785156 88.949219 369.304688 88.011719 369.847656 C 87.074219 370.390625 86.15625 370.960938 85.25 371.558594 C 84.347656 372.152344 83.460938 372.777344 82.59375 373.421875 C 81.726562 374.070312 80.875 374.742188 80.046875 375.4375 C 79.21875 376.132812 78.410156 376.851562 77.621094 377.597656 C 76.832031 378.339844 76.066406 379.101562 75.324219 379.890625 L 73.847656 381.53125 C 73.652344 381.78125 73.480469 382.042969 73.335938 382.320312 C 73.050781 382.816406 72.8125 383.332031 72.621094 383.867188 C 72.429688 384.40625 72.285156 384.953125 72.191406 385.515625 C 72.097656 386.078125 72.054688 386.644531 72.0625 387.214844 C 72.070312 387.785156 72.128906 388.351562 72.238281 388.910156 C 72.34375 389.472656 72.503906 390.019531 72.707031 390.550781 C 72.914062 391.082031 73.167969 391.589844 73.464844 392.078125 C 73.761719 392.566406 74.097656 393.023438 74.476562 393.449219 C 74.855469 393.875 75.269531 394.265625 75.71875 394.617188 C 76.167969 394.972656 76.644531 395.28125 77.148438 395.550781 C 77.652344 395.820312 78.175781 396.039062 78.71875 396.214844 C 79.261719 396.390625 79.816406 396.515625 80.382812 396.589844 C 80.949219 396.667969 81.515625 396.691406 82.085938 396.667969 C 82.65625 396.644531 83.222656 396.566406 83.777344 396.441406 C 84.335938 396.316406 84.875 396.140625 85.402344 395.917969 C 85.929688 395.699219 86.429688 395.429688 86.910156 395.117188 C 87.386719 394.808594 87.835938 394.457031 88.25 394.066406 L 89.140625 393.070312 C 89.910156 392.253906 90.710938 391.476562 91.546875 390.730469 C 92.386719 389.984375 93.253906 389.28125 94.15625 388.613281 C 95.054688 387.945312 95.984375 387.320312 96.941406 386.738281 C 97.898438 386.15625 98.878906 385.617188 99.886719 385.121094 C 100.890625 384.625 101.917969 384.175781 102.960938 383.769531 C 104.007812 383.367188 105.070312 383.011719 106.148438 382.703125 C 107.226562 382.394531 108.316406 382.136719 109.414062 381.925781 C 110.515625 381.714844 111.625 381.550781 112.742188 381.441406 C 113.855469 381.328125 114.976562 381.269531 116.097656 381.257812 C 117.21875 381.246094 118.335938 381.285156 119.453125 381.375 C 120.570312 381.464844 121.683594 381.601562 122.789062 381.792969 C 123.894531 381.980469 124.988281 382.21875 126.070312 382.503906 C 127.15625 382.792969 128.222656 383.125 129.277344 383.507812 C 130.332031 383.890625 131.367188 384.320312 132.382812 384.796875 C 133.394531 385.269531 134.386719 385.792969 135.355469 386.355469 C 136.324219 386.917969 137.265625 387.527344 138.179688 388.175781 C 139.09375 388.824219 139.976562 389.511719 140.828125 390.238281 C 141.679688 390.96875 142.5 391.730469 143.28125 392.53125 C 144.066406 393.332031 144.8125 394.167969 145.519531 395.035156 C 146.226562 395.902344 146.894531 396.800781 147.523438 397.730469 C 148.152344 398.65625 148.734375 399.609375 149.277344 400.589844 C 149.820312 401.570312 150.316406 402.574219 150.769531 403.597656 C 151.21875 404.621094 151.625 405.664062 151.984375 406.726562 C 152.34375 407.789062 152.652344 408.863281 152.914062 409.953125 C 153.175781 411.039062 153.386719 412.136719 153.550781 413.246094 C 153.710938 414.355469 153.824219 415.46875 153.886719 416.585938 C 153.949219 417.703125 153.964844 418.820312 153.925781 419.941406 C 153.886719 421.058594 153.800781 422.175781 153.660156 423.285156 C 153.523438 424.398438 153.335938 425.5 153.101562 426.59375 C 152.863281 427.6875 152.578125 428.769531 152.242188 429.839844 C 151.910156 430.90625 151.527344 431.957031 151.097656 432.992188 C 150.667969 434.027344 150.195312 435.039062 149.675781 436.03125 C 149.15625 437.023438 148.59375 437.992188 147.984375 438.933594 C 147.378906 439.875 146.730469 440.789062 146.042969 441.671875 C 145.351562 442.554688 144.625 443.40625 143.863281 444.222656 C 143.097656 445.042969 142.296875 445.824219 141.460938 446.570312 C 140.625 447.316406 139.757812 448.027344 138.859375 448.695312 C 137.960938 449.363281 137.03125 449.992188 136.078125 450.578125 C 135.121094 451.160156 134.140625 451.703125 133.136719 452.203125 C 132.132812 452.699219 131.109375 453.152344 130.0625 453.558594 C 129.019531 453.964844 127.957031 454.324219 126.878906 454.632812 C 125.804688 454.945312 124.714844 455.207031 123.613281 455.421875 C 122.511719 455.632812 121.40625 455.796875 120.289062 455.910156 C 119.175781 456.023438 118.054688 456.089844 116.933594 456.101562 C 115.8125 456.117188 114.695312 456.082031 113.578125 455.996094 C 112.457031 455.90625 111.347656 455.773438 110.242188 455.585938 C 109.136719 455.398438 108.039062 455.164062 106.957031 454.878906 C 105.871094 454.597656 104.800781 454.265625 103.746094 453.882812 C 99.070312 452.214844 94.898438 449.703125 91.234375 446.351562 C 91.199219 446.351562 91.199219 446.351562 91.199219 446.316406 L 90.410156 445.597656 C 89.980469 445.226562 89.523438 444.898438 89.039062 444.605469 C 88.550781 444.316406 88.039062 444.074219 87.507812 443.878906 C 86.972656 443.683594 86.429688 443.535156 85.871094 443.4375 C 85.3125 443.335938 84.75 443.285156 84.183594 443.289062 C 83.613281 443.289062 83.050781 443.339844 82.492188 443.4375 C 81.933594 443.539062 81.390625 443.6875 80.859375 443.886719 C 80.328125 444.082031 79.816406 444.324219 79.328125 444.613281 C 78.839844 444.902344 78.378906 445.230469 77.949219 445.601562 C 77.519531 445.96875 77.125 446.375 76.769531 446.8125 C 76.410156 447.253906 76.09375 447.722656 75.820312 448.214844 C 75.546875 448.710938 75.316406 449.226562 75.132812 449.765625 C 74.953125 450.300781 74.816406 450.847656 74.734375 451.410156 C 74.648438 451.96875 74.613281 452.53125 74.628906 453.097656 C 74.644531 453.664062 74.710938 454.226562 74.824219 454.78125 C 74.9375 455.335938 75.101562 455.875 75.3125 456.402344 C 75.527344 456.925781 75.78125 457.429688 76.082031 457.910156 C 76.382812 458.390625 76.726562 458.839844 77.105469 459.257812 C 77.429688 459.65625 77.796875 460.011719 78.203125 460.320312 L 78.238281 460.320312 C 81.53125 463.34375 85.132812 465.9375 89.046875 468.101562 C 92.957031 470.265625 97.070312 471.941406 101.382812 473.128906 Z M 101.382812 473.128906 " clip-rule="nonzero"/></clipPath><linearGradient x1="-589.343228" gradientTransform="matrix(-0.159914, 0.302889, -0.303304, -0.159695, 171.192322, 679.120464)" y1="264.870396" x2="-606.946235" gradientUnits="userSpaceOnUse" y2="696.197862" id="5c235b02fc"><stop stop-opacity="1" stop-color="rgb(0%, 71.398926%, 95.298767%)" offset="0"/><stop stop-opacity="1" stop-color="rgb(0%, 71.398926%, 95.298767%)" offset="0.0405677"/><stop stop-opacity="1" stop-color="rgb(0%, 71.398926%, 95.298767%)" offset="0.125"/><stop stop-opacity="1" stop-color="rgb(0%, 71.395874%, 95.269775%)" offset="0.15625"/><stop stop-opacity="1" stop-color="rgb(0%, 71.379089%, 95.13092%)" offset="0.171875"/><stop stop-opacity="1" stop-color="rgb(0%, 71.354675%, 94.91272%)" offset="0.1875"/><stop stop-opacity="1" stop-color="rgb(0%, 71.330261%, 94.692993%)" offset="0.203125"/><stop stop-opacity="1" stop-color="rgb(0%, 71.304321%, 94.474792%)" offset="0.21875"/><stop stop-opacity="1" stop-color="rgb(0%, 71.279907%, 94.256592%)" offset="0.234375"/><stop stop-opacity="1" stop-color="rgb(0%, 71.255493%, 94.036865%)" offset="0.25"/><stop stop-opacity="1" stop-color="rgb(0%, 71.229553%, 93.818665%)" offset="0.265625"/><stop stop-opacity="1" stop-color="rgb(0%, 71.205139%, 93.600464%)" offset="0.28125"/><stop stop-opacity="1" stop-color="rgb(0%, 71.179199%, 93.380737%)" offset="0.296875"/><stop stop-opacity="1" stop-color="rgb(0%, 71.154785%, 93.162537%)" offset="0.3125"/><stop stop-opacity="1" stop-color="rgb(0%, 71.130371%, 92.944336%)" offset="0.328125"/><stop stop-opacity="1" stop-color="rgb(0%, 71.104431%, 92.724609%)" offset="0.34375"/><stop stop-opacity="1" stop-color="rgb(0%, 71.080017%, 92.506409%)" offset="0.359375"/><stop stop-opacity="1" stop-color="rgb(0%, 71.055603%, 92.288208%)" offset="0.375"/><stop stop-opacity="1" stop-color="rgb(0%, 71.029663%, 92.070007%)" offset="0.390625"/><stop stop-opacity="1" stop-color="rgb(0%, 71.000671%, 91.828918%)" offset="0.40625"/><stop stop-opacity="1" stop-color="rgb(0%, 70.953369%, 91.50238%)" offset="0.421875"/><stop stop-opacity="1" stop-color="rgb(0%, 70.890808%, 91.111755%)" offset="0.4375"/><stop stop-opacity="1" stop-color="rgb(0%, 70.829773%, 90.722656%)" offset="0.453125"/><stop stop-opacity="1" stop-color="rgb(0%, 70.768738%, 90.333557%)" offset="0.46875"/><stop stop-opacity="1" stop-color="rgb(0%, 70.707703%, 89.944458%)" offset="0.484375"/><stop stop-opacity="1" stop-color="rgb(0%, 70.646667%, 89.553833%)" offset="0.5"/><stop stop-opacity="1" stop-color="rgb(0%, 70.585632%, 89.164734%)" offset="0.515625"/><stop stop-opacity="1" stop-color="rgb(0%, 70.524597%, 88.775635%)" offset="0.53125"/><stop stop-opacity="1" stop-color="rgb(0%, 70.463562%, 88.386536%)" offset="0.546875"/><stop stop-opacity="1" stop-color="rgb(0%, 70.402527%, 87.995911%)" offset="0.5625"/><stop stop-opacity="1" stop-color="rgb(0%, 70.341492%, 87.606812%)" offset="0.578125"/><stop stop-opacity="1" stop-color="rgb(0%, 70.280457%, 87.217712%)" offset="0.59375"/><stop stop-opacity="1" stop-color="rgb(0%, 70.219421%, 86.828613%)" offset="0.609375"/><stop stop-opacity="1" stop-color="rgb(0%, 70.158386%, 86.437988%)" offset="0.625"/><stop stop-opacity="1" stop-color="rgb(0%, 70.097351%, 86.048889%)" offset="0.640625"/><stop stop-opacity="1" stop-color="rgb(0%, 70.036316%, 85.65979%)" offset="0.65625"/><stop stop-opacity="1" stop-color="rgb(0%, 69.975281%, 85.270691%)" offset="0.671875"/><stop stop-opacity="1" stop-color="rgb(0%, 69.914246%, 84.881592%)" offset="0.6875"/><stop stop-opacity="1" stop-color="rgb(0%, 69.85321%, 84.490967%)" offset="0.703125"/><stop stop-opacity="1" stop-color="rgb(0%, 69.792175%, 84.101868%)" offset="0.71875"/><stop stop-opacity="1" stop-color="rgb(0%, 69.73114%, 83.712769%)" offset="0.734375"/><stop stop-opacity="1" stop-color="rgb(0%, 69.670105%, 83.323669%)" offset="0.75"/><stop stop-opacity="1" stop-color="rgb(0%, 69.60907%, 82.933044%)" offset="0.765625"/><stop stop-opacity="1" stop-color="rgb(0%, 69.548035%, 82.543945%)" offset="0.78125"/><stop stop-opacity="1" stop-color="rgb(0%, 69.487%, 82.154846%)" offset="0.796875"/><stop stop-opacity="1" stop-color="rgb(0%, 69.441223%, 81.863403%)" offset="0.804687"/><stop stop-opacity="1" stop-color="rgb(0%, 69.40918%, 81.666565%)" offset="0.8125"/><stop stop-opacity="1" stop-color="rgb(0%, 69.378662%, 81.455994%)" offset="0.820312"/><stop stop-opacity="1" stop-color="rgb(0%, 69.346619%, 81.233215%)" offset="0.828125"/><stop stop-opacity="1" stop-color="rgb(0%, 69.314575%, 81.011963%)" offset="0.835938"/><stop stop-opacity="1" stop-color="rgb(0%, 69.282532%, 80.789185%)" offset="0.84375"/><stop stop-opacity="1" stop-color="rgb(0%, 69.252014%, 80.567932%)" offset="0.851562"/><stop stop-opacity="1" stop-color="rgb(0%, 69.219971%, 80.345154%)" offset="0.859375"/><stop stop-opacity="1" stop-color="rgb(0%, 69.187927%, 80.123901%)" offset="0.867187"/><stop stop-opacity="1" stop-color="rgb(0%, 69.155884%, 79.901123%)" offset="0.875"/><stop stop-opacity="1" stop-color="rgb(0%, 69.12384%, 79.679871%)" offset="0.882812"/><stop stop-opacity="1" stop-color="rgb(0%, 69.093323%, 79.457092%)" offset="0.890625"/><stop stop-opacity="1" stop-color="rgb(0%, 69.061279%, 79.23584%)" offset="0.898437"/><stop stop-opacity="1" stop-color="rgb(0%, 69.029236%, 79.013062%)" offset="0.90625"/><stop stop-opacity="1" stop-color="rgb(0%, 69.006348%, 78.851318%)" offset="0.9375"/><stop stop-opacity="1" stop-color="rgb(0%, 68.998718%, 78.799438%)" offset="0.959432"/><stop stop-opacity="1" stop-color="rgb(0%, 68.998718%, 78.799438%)" offset="1"/></linearGradient><clipPath id="54b3b7f976"><path d="M 60 401 L 134 401 L 134 436 L 60 436 Z M 60 401 " clip-rule="nonzero"/></clipPath><clipPath id="7318c9bc01"><path d="M 133.371094 416.390625 C 133.246094 415.460938 133.042969 414.546875 132.765625 413.652344 C 132.484375 412.753906 132.132812 411.890625 131.707031 411.050781 C 131.28125 410.214844 130.789062 409.421875 130.226562 408.667969 C 129.667969 407.914062 129.046875 407.214844 128.367188 406.566406 C 127.6875 405.914062 126.960938 405.328125 126.179688 404.800781 C 125.402344 404.277344 124.585938 403.820312 123.730469 403.429688 C 122.875 403.042969 121.992188 402.730469 121.085938 402.488281 C 120.175781 402.25 119.253906 402.089844 118.316406 402.003906 C 117.382812 401.921875 116.445312 401.914062 115.507812 401.988281 C 114.570312 402.0625 113.648438 402.214844 112.738281 402.445312 C 111.824219 402.675781 110.941406 402.980469 110.082031 403.359375 C 109.21875 403.738281 108.398438 404.183594 107.613281 404.703125 C 106.832031 405.21875 106.097656 405.800781 105.410156 406.441406 C 104.722656 407.082031 104.097656 407.777344 103.527344 408.523438 C 102.960938 409.269531 102.457031 410.0625 102.023438 410.890625 C 101.585938 411.722656 101.226562 412.585938 100.9375 413.480469 C 97.644531 415.328125 93.117188 416.457031 88.078125 416.457031 C 83.757812 416.457031 79.78125 415.601562 76.660156 414.199219 C 75.867188 412.835938 74.78125 411.777344 73.402344 411.015625 C 72.722656 410.617188 72.003906 410.320312 71.242188 410.125 C 70.789062 410.023438 70.332031 409.953125 69.871094 409.917969 C 68.597656 409.792969 67.355469 409.941406 66.144531 410.359375 C 64.9375 410.777344 63.871094 411.429688 62.945312 412.316406 L 62.910156 412.316406 L 62.257812 413.035156 C 61.910156 413.421875 61.613281 413.84375 61.367188 414.300781 C 61.082031 414.804688 60.84375 415.332031 60.660156 415.882812 C 60.480469 416.4375 60.351562 417 60.277344 417.574219 C 60.207031 418.152344 60.191406 418.730469 60.234375 419.308594 C 60.277344 419.886719 60.375 420.457031 60.527344 421.015625 C 60.683594 421.574219 60.890625 422.113281 61.152344 422.632812 C 61.414062 423.152344 61.722656 423.640625 62.078125 424.097656 C 62.4375 424.558594 62.835938 424.976562 63.273438 425.355469 C 63.714844 425.734375 64.1875 426.066406 64.695312 426.355469 C 66.304688 427.265625 68.03125 427.632812 69.871094 427.449219 C 70.335938 427.402344 70.792969 427.324219 71.242188 427.210938 C 72.667969 426.851562 73.925781 426.179688 75.015625 425.191406 L 76.007812 424.128906 C 76.007812 424.105469 76.019531 424.09375 76.042969 424.09375 L 76.660156 423.167969 C 79.78125 421.730469 83.757812 420.875 88.078125 420.875 C 93.117188 420.875 97.644531 422.003906 100.9375 423.886719 C 101.265625 424.863281 101.683594 425.796875 102.1875 426.691406 C 102.691406 427.589844 103.273438 428.433594 103.933594 429.222656 C 104.589844 430.011719 105.316406 430.734375 106.109375 431.386719 C 106.902344 432.042969 107.75 432.621094 108.648438 433.121094 C 109.546875 433.621094 110.484375 434.035156 111.460938 434.359375 C 112.4375 434.6875 113.433594 434.921875 114.453125 435.066406 C 115.472656 435.207031 116.496094 435.257812 117.523438 435.210938 C 118.554688 435.164062 119.566406 435.023438 120.570312 434.792969 C 121.574219 434.558594 122.546875 434.238281 123.488281 433.824219 C 124.429688 433.414062 125.328125 432.917969 126.179688 432.339844 C 127.03125 431.765625 127.824219 431.113281 128.554688 430.390625 C 129.285156 429.667969 129.945312 428.882812 130.53125 428.039062 C 131.117188 427.195312 131.621094 426.304688 132.042969 425.367188 C 132.464844 424.429688 132.796875 423.460938 133.039062 422.460938 C 133.285156 421.460938 133.433594 420.449219 133.488281 419.421875 C 133.542969 418.398438 133.503906 417.375 133.371094 416.355469 Z M 133.371094 416.390625 " clip-rule="nonzero"/></clipPath><linearGradient x1="372.044217" gradientTransform="matrix(0.335755, 0.0694362, -0.0695314, 0.335295, -41.015529, 261.757888)" y1="481.63" x2="601.275312" gradientUnits="userSpaceOnUse" y2="481.63" id="6e41b9ed37"><stop stop-opacity="1" stop-color="rgb(15.299988%, 44.299316%, 87.799072%)" offset="0"/><stop stop-opacity="1" stop-color="rgb(15.299988%, 44.299316%, 87.799072%)" offset="0.125"/><stop stop-opacity="1" stop-color="rgb(15.344238%, 44.232178%, 87.747192%)" offset="0.15625"/><stop stop-opacity="1" stop-color="rgb(15.480042%, 44.024658%, 87.586975%)" offset="0.171875"/><stop stop-opacity="1" stop-color="rgb(15.663147%, 43.745422%, 87.371826%)" offset="0.1875"/><stop stop-opacity="1" stop-color="rgb(15.846252%, 43.466187%, 87.156677%)" offset="0.203125"/><stop stop-opacity="1" stop-color="rgb(16.029358%, 43.186951%, 86.941528%)" offset="0.21875"/><stop stop-opacity="1" stop-color="rgb(16.212463%, 42.907715%, 86.724854%)" offset="0.234375"/><stop stop-opacity="1" stop-color="rgb(16.397095%, 42.628479%, 86.509705%)" offset="0.25"/><stop stop-opacity="1" stop-color="rgb(16.5802%, 42.349243%, 86.294556%)" offset="0.265625"/><stop stop-opacity="1" stop-color="rgb(16.763306%, 42.070007%, 86.079407%)" offset="0.28125"/><stop stop-opacity="1" stop-color="rgb(16.946411%, 41.790771%, 85.864258%)" offset="0.296875"/><stop stop-opacity="1" stop-color="rgb(17.129517%, 41.511536%, 85.649109%)" offset="0.3125"/><stop stop-opacity="1" stop-color="rgb(17.314148%, 41.2323%, 85.43396%)" offset="0.328125"/><stop stop-opacity="1" stop-color="rgb(17.497253%, 40.953064%, 85.218811%)" offset="0.34375"/><stop stop-opacity="1" stop-color="rgb(17.654419%, 40.701294%, 85.035706%)" offset="0.351562"/><stop stop-opacity="1" stop-color="rgb(17.790222%, 40.46936%, 84.883118%)" offset="0.359375"/><stop stop-opacity="1" stop-color="rgb(17.927551%, 40.232849%, 84.727478%)" offset="0.367187"/><stop stop-opacity="1" stop-color="rgb(18.06488%, 39.994812%, 84.571838%)" offset="0.375"/><stop stop-opacity="1" stop-color="rgb(18.200684%, 39.758301%, 84.414673%)" offset="0.382812"/><stop stop-opacity="1" stop-color="rgb(18.338013%, 39.520264%, 84.259033%)" offset="0.390625"/><stop stop-opacity="1" stop-color="rgb(18.475342%, 39.283752%, 84.103394%)" offset="0.398438"/><stop stop-opacity="1" stop-color="rgb(18.612671%, 39.045715%, 83.947754%)" offset="0.40625"/><stop stop-opacity="1" stop-color="rgb(18.75%, 38.809204%, 83.792114%)" offset="0.414062"/><stop stop-opacity="1" stop-color="rgb(18.887329%, 38.571167%, 83.636475%)" offset="0.421875"/><stop stop-opacity="1" stop-color="rgb(19.024658%, 38.334656%, 83.480835%)" offset="0.429688"/><stop stop-opacity="1" stop-color="rgb(19.161987%, 38.096619%, 83.323669%)" offset="0.4375"/><stop stop-opacity="1" stop-color="rgb(19.299316%, 37.860107%, 83.16803%)" offset="0.445312"/><stop stop-opacity="1" stop-color="rgb(19.436646%, 37.62207%, 83.01239%)" offset="0.453125"/><stop stop-opacity="1" stop-color="rgb(19.573975%, 37.385559%, 82.85675%)" offset="0.460938"/><stop stop-opacity="1" stop-color="rgb(19.711304%, 37.147522%, 82.701111%)" offset="0.46875"/><stop stop-opacity="1" stop-color="rgb(19.848633%, 36.911011%, 82.545471%)" offset="0.476563"/><stop stop-opacity="1" stop-color="rgb(19.985962%, 36.672974%, 82.389832%)" offset="0.484375"/><stop stop-opacity="1" stop-color="rgb(20.123291%, 36.436462%, 82.234192%)" offset="0.492188"/><stop stop-opacity="1" stop-color="rgb(20.26062%, 36.198425%, 82.077026%)" offset="0.5"/><stop stop-opacity="1" stop-color="rgb(20.396423%, 35.961914%, 81.921387%)" offset="0.507812"/><stop stop-opacity="1" stop-color="rgb(20.533752%, 35.723877%, 81.765747%)" offset="0.515625"/><stop stop-opacity="1" stop-color="rgb(20.671082%, 35.487366%, 81.610107%)" offset="0.523438"/><stop stop-opacity="1" stop-color="rgb(20.808411%, 35.249329%, 81.454468%)" offset="0.53125"/><stop stop-opacity="1" stop-color="rgb(20.94574%, 35.012817%, 81.298828%)" offset="0.539062"/><stop stop-opacity="1" stop-color="rgb(21.083069%, 34.77478%, 81.143188%)" offset="0.546875"/><stop stop-opacity="1" stop-color="rgb(21.220398%, 34.538269%, 80.986023%)" offset="0.554688"/><stop stop-opacity="1" stop-color="rgb(21.357727%, 34.300232%, 80.830383%)" offset="0.5625"/><stop stop-opacity="1" stop-color="rgb(21.495056%, 34.063721%, 80.674744%)" offset="0.570312"/><stop stop-opacity="1" stop-color="rgb(21.632385%, 33.825684%, 80.519104%)" offset="0.578125"/><stop stop-opacity="1" stop-color="rgb(21.769714%, 33.589172%, 80.363464%)" offset="0.585938"/><stop stop-opacity="1" stop-color="rgb(21.907043%, 33.352661%, 80.207825%)" offset="0.59375"/><stop stop-opacity="1" stop-color="rgb(22.044373%, 33.114624%, 80.052185%)" offset="0.601563"/><stop stop-opacity="1" stop-color="rgb(22.181702%, 32.878113%, 79.896545%)" offset="0.609375"/><stop stop-opacity="1" stop-color="rgb(22.319031%, 32.640076%, 79.73938%)" offset="0.617188"/><stop stop-opacity="1" stop-color="rgb(22.45636%, 32.403564%, 79.58374%)" offset="0.625"/><stop stop-opacity="1" stop-color="rgb(22.592163%, 32.165527%, 79.428101%)" offset="0.632812"/><stop stop-opacity="1" stop-color="rgb(22.729492%, 31.929016%, 79.272461%)" offset="0.640625"/><stop stop-opacity="1" stop-color="rgb(22.866821%, 31.690979%, 79.116821%)" offset="0.648438"/><stop stop-opacity="1" stop-color="rgb(23.00415%, 31.454468%, 78.961182%)" offset="0.65625"/><stop stop-opacity="1" stop-color="rgb(23.141479%, 31.216431%, 78.805542%)" offset="0.664062"/><stop stop-opacity="1" stop-color="rgb(23.278809%, 30.979919%, 78.648376%)" offset="0.671875"/><stop stop-opacity="1" stop-color="rgb(23.416138%, 30.741882%, 78.492737%)" offset="0.679688"/><stop stop-opacity="1" stop-color="rgb(23.570251%, 30.477905%, 78.311157%)" offset="0.6875"/><stop stop-opacity="1" stop-color="rgb(23.742676%, 30.183411%, 78.102112%)" offset="0.695312"/><stop stop-opacity="1" stop-color="rgb(23.918152%, 29.884338%, 77.890015%)" offset="0.703125"/><stop stop-opacity="1" stop-color="rgb(24.093628%, 29.586792%, 77.677917%)" offset="0.710938"/><stop stop-opacity="1" stop-color="rgb(24.269104%, 29.289246%, 77.46582%)" offset="0.71875"/><stop stop-opacity="1" stop-color="rgb(24.44458%, 28.991699%, 77.253723%)" offset="0.726562"/><stop stop-opacity="1" stop-color="rgb(24.620056%, 28.692627%, 77.041626%)" offset="0.734375"/><stop stop-opacity="1" stop-color="rgb(24.795532%, 28.395081%, 76.828003%)" offset="0.742187"/><stop stop-opacity="1" stop-color="rgb(24.969482%, 28.097534%, 76.615906%)" offset="0.75"/><stop stop-opacity="1" stop-color="rgb(25.144958%, 27.798462%, 76.403809%)" offset="0.757812"/><stop stop-opacity="1" stop-color="rgb(25.320435%, 27.500916%, 76.191711%)" offset="0.765625"/><stop stop-opacity="1" stop-color="rgb(25.495911%, 27.203369%, 75.979614%)" offset="0.773438"/><stop stop-opacity="1" stop-color="rgb(25.671387%, 26.905823%, 75.767517%)" offset="0.78125"/><stop stop-opacity="1" stop-color="rgb(25.846863%, 26.60675%, 75.55542%)" offset="0.789062"/><stop stop-opacity="1" stop-color="rgb(26.022339%, 26.309204%, 75.343323%)" offset="0.796875"/><stop stop-opacity="1" stop-color="rgb(26.196289%, 26.011658%, 75.131226%)" offset="0.804687"/><stop stop-opacity="1" stop-color="rgb(26.371765%, 25.714111%, 74.917603%)" offset="0.8125"/><stop stop-opacity="1" stop-color="rgb(26.547241%, 25.415039%, 74.705505%)" offset="0.820312"/><stop stop-opacity="1" stop-color="rgb(26.722717%, 25.117493%, 74.493408%)" offset="0.828125"/><stop stop-opacity="1" stop-color="rgb(26.898193%, 24.819946%, 74.281311%)" offset="0.835938"/><stop stop-opacity="1" stop-color="rgb(27.073669%, 24.5224%, 74.069214%)" offset="0.84375"/><stop stop-opacity="1" stop-color="rgb(27.249146%, 24.223328%, 73.857117%)" offset="0.851562"/><stop stop-opacity="1" stop-color="rgb(27.423096%, 23.925781%, 73.64502%)" offset="0.859375"/><stop stop-opacity="1" stop-color="rgb(27.598572%, 23.628235%, 73.432922%)" offset="0.867188"/><stop stop-opacity="1" stop-color="rgb(27.774048%, 23.330688%, 73.220825%)" offset="0.875"/><stop stop-opacity="1" stop-color="rgb(27.949524%, 23.031616%, 73.007202%)" offset="0.882812"/><stop stop-opacity="1" stop-color="rgb(28.125%, 22.73407%, 72.795105%)" offset="0.890625"/><stop stop-opacity="1" stop-color="rgb(28.300476%, 22.436523%, 72.583008%)" offset="0.898437"/><stop stop-opacity="1" stop-color="rgb(28.475952%, 22.137451%, 72.370911%)" offset="0.90625"/><stop stop-opacity="1" stop-color="rgb(28.649902%, 21.839905%, 72.158813%)" offset="0.914062"/><stop stop-opacity="1" stop-color="rgb(28.825378%, 21.542358%, 71.946716%)" offset="0.921875"/><stop stop-opacity="1" stop-color="rgb(29.000854%, 21.244812%, 71.734619%)" offset="0.929688"/><stop stop-opacity="1" stop-color="rgb(29.176331%, 20.94574%, 71.522522%)" offset="0.9375"/><stop stop-opacity="1" stop-color="rgb(29.351807%, 20.648193%, 71.310425%)" offset="0.945313"/><stop stop-opacity="1" stop-color="rgb(29.527283%, 20.350647%, 71.098328%)" offset="0.953125"/><stop stop-opacity="1" stop-color="rgb(29.702759%, 20.053101%, 70.884705%)" offset="0.960938"/><stop stop-opacity="1" stop-color="rgb(29.876709%, 19.754028%, 70.672607%)" offset="0.96875"/><stop stop-opacity="1" stop-color="rgb(30.052185%, 19.456482%, 70.46051%)" offset="0.976562"/><stop stop-opacity="1" stop-color="rgb(30.227661%, 19.158936%, 70.248413%)" offset="0.984375"/><stop stop-opacity="1" stop-color="rgb(30.403137%, 18.861389%, 70.036316%)" offset="0.992188"/><stop stop-opacity="1" stop-color="rgb(30.578613%, 18.562317%, 69.824219%)" offset="1"/></linearGradient></defs><g clip-path="url(#0182607015)"><g clip-path="url(#2d9180fb08)"><path fill="url(#6d9761c957)" d="M 183.980469 363.921875 L 179.726562 384.417969 L 200.21875 388.65625 L 204.46875 368.15625 Z M 183.980469 363.921875 " fill-rule="nonzero"/></g></g><g clip-path="url(#4b18539033)"><g clip-path="url(#0cb91bca20)"><path fill="url(#701922345a)" d="M 183.328125 453.929688 L 179.070312 474.449219 L 199.609375 478.699219 L 203.863281 458.175781 Z M 183.328125 453.929688 " fill-rule="nonzero"/></g></g><g clip-path="url(#e060dc1156)"><g clip-path="url(#4f4542ffe9)"><path fill="url(#ee7046b96b)" d="M 29.5625 296.398438 L -13.808594 505.542969 L 168.742188 543.296875 L 212.113281 334.152344 Z M 29.5625 296.398438 " fill-rule="nonzero"/></g></g><g clip-path="url(#60ba888acf)"><g clip-path="url(#f8253ab06e)"><path fill="url(#5c235b02fc)" d="M 219.742188 386.78125 L 94.019531 320.582031 L 25.339844 450.664062 L 151.066406 516.859375 Z M 219.742188 386.78125 " fill-rule="nonzero"/></g></g><g clip-path="url(#54b3b7f976)"><g clip-path="url(#7318c9bc01)"><path fill="url(#6e41b9ed37)" d="M 63.207031 387.371094 L 53.5625 433.886719 L 130.527344 449.800781 L 140.175781 403.285156 Z M 63.207031 387.371094 " fill-rule="nonzero"/></g></g><g fill="#3e47c4" fill-opacity="1"><g transform="translate(201.111498, 451.201403)"><g><path d="M 30.953125 -29.28125 L 60.796875 -29.28125 C 60.742188 -24.851562 60.023438 -20.785156 58.640625 -17.078125 C 57.253906 -13.367188 55.289062 -10.15625 52.75 -7.4375 C 50.21875 -4.71875 47.207031 -2.597656 43.71875 -1.078125 C 40.226562 0.441406 36.375 1.203125 32.15625 1.203125 C 28.050781 1.203125 24.238281 0.484375 20.71875 -0.953125 C 17.195312 -2.398438 14.113281 -4.425781 11.46875 -7.03125 C 8.832031 -9.644531 6.796875 -12.738281 5.359375 -16.3125 C 3.921875 -19.894531 3.203125 -23.765625 3.203125 -27.921875 C 3.203125 -32.128906 3.90625 -36.003906 5.3125 -39.546875 C 6.726562 -43.097656 8.726562 -46.191406 11.3125 -48.828125 C 13.90625 -51.472656 16.960938 -53.53125 20.484375 -55 C 24.003906 -56.46875 27.816406 -57.203125 31.921875 -57.203125 C 36.554688 -57.203125 40.847656 -56.296875 44.796875 -54.484375 C 48.742188 -52.671875 52.050781 -50.160156 54.71875 -46.953125 C 57.382812 -43.753906 59.144531 -40.050781 60 -35.84375 L 47.515625 -35.84375 C 46.347656 -38.882812 44.375 -41.285156 41.59375 -43.046875 C 38.820312 -44.804688 35.675781 -45.6875 32.15625 -45.6875 C 28.851562 -45.6875 25.945312 -44.925781 23.4375 -43.40625 C 20.9375 -41.882812 18.976562 -39.800781 17.5625 -37.15625 C 16.144531 -34.519531 15.4375 -31.441406 15.4375 -27.921875 C 15.4375 -24.453125 16.128906 -21.394531 17.515625 -18.75 C 18.898438 -16.113281 20.847656 -14.046875 23.359375 -12.546875 C 25.867188 -11.054688 28.800781 -10.3125 32.15625 -10.3125 C 35.78125 -10.3125 39.03125 -11.191406 41.90625 -12.953125 C 44.789062 -14.710938 46.742188 -17.035156 47.765625 -19.921875 L 30.953125 -19.921875 Z M 30.953125 -29.28125 "/></g></g></g><g fill="#3e47c4" fill-opacity="1"><g transform="translate(272.545332, 451.201403)"><g><path d="M 37.203125 0 L 26.3125 -19.125 L 18.5625 -19.125 L 18.5625 0 L 6.40625 0 L 6.40625 -56 L 29.046875 -56 C 32.773438 -56 36.101562 -55.195312 39.03125 -53.59375 C 41.96875 -52 44.289062 -49.8125 46 -47.03125 C 47.707031 -44.257812 48.5625 -41.0625 48.5625 -37.4375 C 48.5625 -33.8125 47.640625 -30.570312 45.796875 -27.71875 C 43.960938 -24.863281 41.5 -22.691406 38.40625 -21.203125 L 50.796875 0 Z M 18.5625 -44.796875 L 18.5625 -30.3125 L 28.234375 -30.3125 C 30.742188 -30.3125 32.71875 -30.992188 34.15625 -32.359375 C 35.59375 -33.722656 36.3125 -35.441406 36.3125 -37.515625 C 36.3125 -39.648438 35.59375 -41.394531 34.15625 -42.75 C 32.71875 -44.113281 30.742188 -44.796875 28.234375 -44.796875 Z M 18.5625 -44.796875 "/></g></g></g><g fill="#3e47c4" fill-opacity="1"><g transform="translate(333.100218, 451.201403)"><g><path d="M 6.40625 0 L 6.40625 -56 L 18.5625 -56 L 18.5625 0 Z M 6.40625 0 "/></g></g></g><g fill="#3e47c4" fill-opacity="1"><g transform="translate(365.737817, 451.201403)"><g><path d="M 27.59375 -56 C 31.707031 -56 35.492188 -55.304688 38.953125 -53.921875 C 42.421875 -52.535156 45.421875 -50.585938 47.953125 -48.078125 C 50.492188 -45.566406 52.46875 -42.617188 53.875 -39.234375 C 55.289062 -35.847656 56 -32.128906 56 -28.078125 C 56 -24.023438 55.289062 -20.289062 53.875 -16.875 C 52.46875 -13.46875 50.492188 -10.492188 47.953125 -7.953125 C 45.421875 -5.421875 42.421875 -3.460938 38.953125 -2.078125 C 35.492188 -0.691406 31.707031 0 27.59375 0 L 6.40625 0 L 6.40625 -56 Z M 27.28125 -11.28125 C 30.476562 -11.28125 33.300781 -12 35.75 -13.4375 C 38.207031 -14.875 40.128906 -16.859375 41.515625 -19.390625 C 42.898438 -21.929688 43.59375 -24.828125 43.59375 -28.078125 C 43.59375 -31.328125 42.898438 -34.207031 41.515625 -36.71875 C 40.128906 -39.226562 38.207031 -41.1875 35.75 -42.59375 C 33.300781 -44.007812 30.476562 -44.71875 27.28125 -44.71875 L 18.5625 -44.71875 L 18.5625 -11.28125 Z M 27.28125 -11.28125 "/></g></g></g><g fill="#3e47c4" fill-opacity="1"><g transform="translate(432.69209, 451.201403)"><g><path d="M 24.953125 1.125 C 20.691406 1.125 16.929688 0.351562 13.671875 -1.1875 C 10.421875 -2.738281 7.875 -4.953125 6.03125 -7.828125 C 4.195312 -10.710938 3.28125 -14.15625 3.28125 -18.15625 L 15.515625 -18.15625 C 15.515625 -15.4375 16.460938 -13.421875 18.359375 -12.109375 C 20.253906 -10.804688 22.425781 -10.15625 24.875 -10.15625 C 26.425781 -10.15625 27.878906 -10.410156 29.234375 -10.921875 C 30.597656 -11.429688 31.71875 -12.175781 32.59375 -13.15625 C 33.476562 -14.144531 33.921875 -15.332031 33.921875 -16.71875 C 33.921875 -18.15625 33.410156 -19.285156 32.390625 -20.109375 C 31.378906 -20.941406 30.019531 -21.625 28.3125 -22.15625 C 26.613281 -22.6875 24.75 -23.195312 22.71875 -23.6875 C 20.632812 -24.164062 18.5 -24.75 16.3125 -25.4375 C 14.132812 -26.132812 12.109375 -27.054688 10.234375 -28.203125 C 8.367188 -29.347656 6.875 -30.894531 5.75 -32.84375 C 4.632812 -34.789062 4.078125 -37.253906 4.078125 -40.234375 C 4.078125 -45.617188 5.90625 -49.765625 9.5625 -52.671875 C 13.21875 -55.585938 18.164062 -57.046875 24.40625 -57.046875 C 30.800781 -57.046875 35.757812 -55.429688 39.28125 -52.203125 C 42.800781 -48.972656 44.5625 -44.585938 44.5625 -39.046875 L 32.5625 -39.046875 C 32.5625 -41.441406 31.707031 -43.210938 30 -44.359375 C 28.289062 -45.503906 26.316406 -46.078125 24.078125 -46.078125 C 22.109375 -46.078125 20.296875 -45.648438 18.640625 -44.796875 C 16.984375 -43.941406 16.15625 -42.609375 16.15625 -40.796875 C 16.15625 -39.460938 16.648438 -38.410156 17.640625 -37.640625 C 18.628906 -36.867188 19.9375 -36.226562 21.5625 -35.71875 C 23.1875 -35.207031 24.984375 -34.710938 26.953125 -34.234375 C 29.085938 -33.703125 31.273438 -33.078125 33.515625 -32.359375 C 35.753906 -31.640625 37.832031 -30.664062 39.75 -29.4375 C 41.675781 -28.207031 43.238281 -26.578125 44.4375 -24.546875 C 45.632812 -22.523438 46.234375 -19.96875 46.234375 -16.875 C 46.234375 -12.820312 45.257812 -9.460938 43.3125 -6.796875 C 41.375 -4.128906 38.800781 -2.140625 35.59375 -0.828125 C 32.394531 0.472656 28.847656 1.125 24.953125 1.125 Z M 24.953125 1.125 "/></g></g></g><g fill="#3e47c4" fill-opacity="1"><g transform="translate(489.8873, 451.201403)"><g><path d="M 45.046875 -56 L 45.046875 -44.71875 L 29.4375 -44.71875 L 29.4375 0 L 17.28125 0 L 17.28125 -44.71875 L 1.765625 -44.71875 L 1.765625 -56 Z M 45.046875 -56 "/></g></g></g><g fill="#3e47c4" fill-opacity="1"><g transform="translate(544.282805, 451.201403)"><g><path d="M 37.203125 0 L 26.3125 -19.125 L 18.5625 -19.125 L 18.5625 0 L 6.40625 0 L 6.40625 -56 L 29.046875 -56 C 32.773438 -56 36.101562 -55.195312 39.03125 -53.59375 C 41.96875 -52 44.289062 -49.8125 46 -47.03125 C 47.707031 -44.257812 48.5625 -41.0625 48.5625 -37.4375 C 48.5625 -33.8125 47.640625 -30.570312 45.796875 -27.71875 C 43.960938 -24.863281 41.5 -22.691406 38.40625 -21.203125 L 50.796875 0 Z M 18.5625 -44.796875 L 18.5625 -30.3125 L 28.234375 -30.3125 C 30.742188 -30.3125 32.71875 -30.992188 34.15625 -32.359375 C 35.59375 -33.722656 36.3125 -35.441406 36.3125 -37.515625 C 36.3125 -39.648438 35.59375 -41.394531 34.15625 -42.75 C 32.71875 -44.113281 30.742188 -44.796875 28.234375 -44.796875 Z M 18.5625 -44.796875 "/></g></g></g><g fill="#3e47c4" fill-opacity="1"><g transform="translate(604.837703, 451.201403)"><g><path d="M 18.5625 -11.28125 L 40.875 -11.28125 L 40.875 0 L 6.40625 0 L 6.40625 -56 L 40 -56 L 40 -44.796875 L 18.5625 -44.796875 L 18.5625 -33.765625 L 37.921875 -33.765625 L 37.921875 -22.796875 L 18.5625 -22.796875 Z M 18.5625 -11.28125 "/></g></g></g><g fill="#3e47c4" fill-opacity="1"><g transform="translate(657.233376, 451.201403)"><g><path d="M 43.59375 0 L 39.6875 -10.640625 L 17.359375 -10.640625 L 13.515625 0 L 0.71875 0 L 22.640625 -56 L 34.078125 -56 L 56.71875 0 Z M 28.484375 -41.203125 L 21.203125 -21.203125 L 35.84375 -21.203125 Z M 28.484375 -41.203125 "/></g></g></g><g fill="#3e47c4" fill-opacity="1"><g transform="translate(722.347829, 451.201403)"><g><path d="M 75.046875 0 L 62.71875 0 L 57.203125 -36.5625 L 40.484375 -0.078125 L 37.515625 -0.078125 L 20.796875 -36.5625 L 15.28125 0 L 2.875 0 L 11.6875 -56 L 23.84375 -56 L 38.953125 -21.6875 L 54.15625 -56 L 66.3125 -56 Z M 75.046875 0 "/></g></g></g></svg>
